<svg width="741" height="121" viewBox="0 0 741 121" fill="none" xmlns="http://www.w3.org/2000/svg">
<path d="M741 18.5623L709.569 79.5689V106.174H682.097V79.5689L650.666 18.5623H682.097L696.08 49.6224L710.063 18.5623H741Z" fill="#FED452"/>
<path d="M618.007 106.174L601.549 74.7428H601.425V106.174H573.954V18.5623H614.79C621.884 18.5623 627.948 19.841 632.98 22.3984C638.013 24.8733 641.766 28.2969 644.241 32.6693C646.799 36.9591 648.077 41.8265 648.077 47.2713C648.077 53.1286 646.427 58.3259 643.128 62.8632C639.91 67.4006 635.249 70.6592 629.144 72.6392L648.201 106.174H618.007ZM601.425 56.4285H612.315C614.955 56.4285 616.935 55.851 618.255 54.696C619.575 53.4586 620.235 51.5611 620.235 49.0037C620.235 46.6938 619.533 44.8789 618.131 43.5589C616.811 42.2389 614.872 41.579 612.315 41.579H601.425V56.4285Z" fill="#FED452"/>
<path d="M511.863 18.5623V67.9368C511.863 71.9792 512.729 75.1966 514.462 77.589C516.277 79.8989 519.164 81.0539 523.124 81.0539C527.084 81.0539 530.012 79.8989 531.91 77.589C533.807 75.1966 534.756 71.9792 534.756 67.9368V18.5623H562.104V67.9368C562.104 76.269 560.371 83.4051 556.906 89.3448C553.442 95.2021 548.698 99.6157 542.676 102.586C536.653 105.556 529.93 107.04 522.505 107.04C515.08 107.04 508.481 105.556 502.706 102.586C497.013 99.6157 492.559 95.2021 489.341 89.3448C486.124 83.4875 484.515 76.3515 484.515 67.9368V18.5623H511.863Z" fill="#FED452"/>
<path d="M475.705 18.2612V40.0405H441.304V52.1676H466.053V72.8331H441.304V105.873H413.832V18.2612H475.705Z" fill="#FED452"/>
<path d="M382.089 63.0483C386.792 63.0483 390.855 63.9352 394.278 65.7089C397.743 67.4413 400.383 69.9369 402.198 73.1955C404.054 76.4541 404.982 80.2903 404.982 84.7039C404.982 89.1175 404.054 92.9536 402.198 96.2122C400.383 99.4296 397.743 101.905 394.278 103.637C390.855 105.328 386.792 106.174 382.089 106.174H368.663V63.0483H382.089ZM382.089 101.533C387.658 101.533 391.907 100.069 394.835 97.1403C397.764 94.1704 399.228 90.0249 399.228 84.7039C399.228 79.3415 397.743 75.1548 394.773 72.1437C391.845 69.1325 387.617 67.6269 382.089 67.6269H374.294V101.533H382.089Z" fill="black"/>
<path d="M359.066 106.175H353.435L330.79 71.8351V106.175H325.159V62.9873H330.79L353.435 97.2649V62.9873H359.066V106.175Z" fill="black"/>
<path d="M299.067 67.6278V82.0442H314.783V86.6846H299.067V101.534H316.639V106.175H293.437V62.9873H316.639V67.6278H299.067Z" fill="black"/>
<path d="M286.506 63.0483V67.6269H274.75V106.174H269.12V67.6269H257.302V63.0483H286.506Z" fill="black"/>
<path d="M250.365 106.175H244.734L222.089 71.8351V106.175H216.458V62.9873H222.089L244.734 97.2649V62.9873H250.365V106.175Z" fill="black"/>
<path d="M187.37 106.607C183.369 106.607 179.719 105.679 176.419 103.823C173.119 101.925 170.5 99.306 168.561 95.9648C166.664 92.5824 165.715 88.7876 165.715 84.5802C165.715 80.3729 166.664 76.5986 168.561 73.2575C170.5 69.8751 173.119 67.2558 176.419 65.3996C179.719 63.5022 183.369 62.5535 187.37 62.5535C191.413 62.5535 195.084 63.5022 198.384 65.3996C201.684 67.2558 204.282 69.8545 206.18 73.1956C208.077 76.5367 209.026 80.3316 209.026 84.5802C209.026 88.8288 208.077 92.6237 206.18 95.9648C204.282 99.306 201.684 101.925 198.384 103.823C195.084 105.679 191.413 106.607 187.37 106.607ZM187.37 101.719C190.382 101.719 193.083 101.018 195.476 99.6153C197.909 98.2129 199.807 96.2123 201.168 93.6137C202.57 91.015 203.272 88.0039 203.272 84.5802C203.272 81.1153 202.57 78.1042 201.168 75.5468C199.807 72.9481 197.93 70.9476 195.538 69.5451C193.145 68.1427 190.423 67.4414 187.37 67.4414C184.318 67.4414 181.596 68.1427 179.203 69.5451C176.811 70.9476 174.913 72.9481 173.511 75.5468C172.15 78.1042 171.469 81.1153 171.469 84.5802C171.469 88.0039 172.15 91.015 173.511 93.6137C174.913 96.2123 176.811 98.2129 179.203 99.6153C181.637 101.018 184.359 101.719 187.37 101.719Z" fill="black"/>
<path d="M152.882 106.174L142.611 88.54H135.805V106.174H130.175V63.0483H144.096C147.355 63.0483 150.098 63.6052 152.325 64.7189C154.594 65.8326 156.285 67.3382 157.399 69.2356C158.513 71.1331 159.069 73.2986 159.069 75.7323C159.069 78.7022 158.203 81.3215 156.471 83.5901C154.78 85.8588 152.222 87.3644 148.799 88.1069L159.626 106.174H152.882ZM135.805 84.0233H144.096C147.149 84.0233 149.438 83.2808 150.964 81.7958C152.49 80.2696 153.253 78.2484 153.253 75.7323C153.253 73.1749 152.49 71.1949 150.964 69.7925C149.479 68.39 147.19 67.6888 144.096 67.6888H135.805V84.0233Z" fill="black"/>
<path d="M58.9175 18.2612H420.874V54.783H80.4392L58.9175 18.2612Z" fill="url(#paint0_linear_138_3)"/>
<g clip-path="url(#clip0_138_3)">
<path d="M87.0289 60.4439L86.8653 59.9962C78.9218 37.8923 65.885 18.0271 48.853 2.00301L48.082 1.29607C47.2176 0.471297 46.0494 0 44.8578 0C43.6663 0 42.4981 0.471297 41.6337 1.29607L40.8627 2.00301C23.8307 18.0271 10.7939 37.8923 2.85034 59.9962L2.6868 60.4439C0.911175 65.3454 0 70.5532 0 75.7846C0 100.551 20.2795 120.652 44.8578 120.652C69.4362 120.652 89.7157 100.551 89.7157 75.7846C89.7157 70.5532 88.8045 65.369 87.0289 60.4439ZM44.1102 34.9467C44.5775 34.3105 45.3251 33.9334 46.0961 33.9334C47.4746 33.9334 48.596 35.0645 48.596 36.4549V39.1413C48.596 41.2385 49.4371 43.2415 50.909 44.7026L62.9412 56.65C68.1045 61.7871 71.0249 68.8094 71.0249 76.1145C71.0249 90.3006 59.6236 101.8 45.5587 101.8H44.8578C30.3959 101.8 18.6908 89.9942 18.6908 75.4076V73.4753C18.6908 68.4795 20.5131 63.6723 23.784 59.949L25.3961 58.111C25.8867 57.5454 26.5876 57.2391 27.3352 57.2391C28.7604 57.2391 29.9052 58.3938 29.9052 59.8312V70.1998C29.9052 75.926 34.5312 80.5683 40.2085 80.5683C45.8625 80.5683 50.4651 75.9496 50.4651 70.2469C50.4651 67.5134 49.3904 64.8741 47.4746 62.9418L44.3906 59.8312C41.1197 56.5321 39.274 52.0312 39.274 47.3418C39.274 43.5243 40.5122 39.8011 42.7785 36.7612L44.1336 34.9231L44.1102 34.9467Z" fill="#970000"/>
</g>
<path d="M123.375 63.0483V67.6269H104.628V82.1671H119.848V86.7457H104.628V106.174H98.9971V63.0483H123.375Z" fill="black"/>
<defs>
<linearGradient id="paint0_linear_138_3" x1="58.9175" y1="36.5221" x2="420.874" y2="36.5221" gradientUnits="userSpaceOnUse">
<stop stop-color="#970000"/>
<stop offset="1" stop-color="#FED452"/>
</linearGradient>
<clipPath id="clip0_138_3">
<rect width="89.7157" height="120.652" fill="white"/>
</clipPath>
</defs>
</svg>
