<svg width="703" height="170" viewBox="0 0 703 170" fill="none" xmlns="http://www.w3.org/2000/svg">
<path d="M146.417 157.577L180.195 160.076V117.551L144.525 115.408L146.417 157.577Z" fill="#FED2A4"/>
<path d="M121.209 106.732C118.71 106.803 116.353 105.732 114.853 103.733L101.107 85.5228C97.8931 81.2381 91.7875 80.4169 87.5385 83.6304C83.2895 86.8439 82.4326 92.9138 85.6818 97.1985L100.75 117.051L113.782 134.19C124.53 148.329 134.063 145.33 146.81 144.009L152.023 131.726C152.023 108.482 128.493 106.482 121.28 106.696H121.209V106.732Z" fill="#FFE5C2"/>
<path d="M121.209 106.732C118.71 106.803 116.353 105.732 114.853 103.733L101.107 85.5228C97.8931 81.2381 91.7875 80.4169 87.5385 83.6304C87.1814 83.8803 86.8601 84.166 86.5744 84.4873C88.0741 85.13 89.3952 86.1655 90.4306 87.5223L104.177 105.732C105.677 107.732 108.069 108.803 110.533 108.731C117.745 108.482 141.276 110.517 141.276 133.761L136.455 145.116C139.704 144.901 143.096 144.401 146.774 144.009L151.987 131.726C151.987 108.482 128.457 106.482 121.245 106.696H121.209V106.732Z" fill="#FED2A4"/>
<path d="M98.2859 55.9942C90.502 81.0953 85.3247 102.09 85.3247 102.09C85.3247 102.09 105.534 87.1652 113.318 62.0641C119.888 40.8193 113.604 20.8955 111.497 15.254C111.318 14.7184 110.569 14.7541 110.426 15.254C109.033 20.11 104.677 35.392 98.2859 55.9585V55.9942Z" fill="#7ACAA6"/>
<path d="M111.497 15.254C111.318 14.7184 110.569 14.7541 110.426 15.254C109.533 18.3604 107.427 25.7515 104.32 36.1061C105.891 44.0328 106.57 53.709 104.463 63.9208C100.928 80.9524 91.5375 94.0564 85.6104 100.948C85.4318 101.662 85.3247 102.054 85.3247 102.054C85.3247 102.054 105.534 87.1295 113.318 62.0284C119.888 40.7836 113.604 20.8598 111.497 15.2183V15.254Z" fill="#57BE92"/>
<path d="M119.031 72.5616C103.713 89.7003 85.3247 102.09 85.3247 102.09C85.3247 102.09 110.104 100.305 127.279 85.0229C141.847 72.0617 140.526 52.1737 139.776 46.4608C139.704 45.9252 138.99 45.7823 138.705 46.2465C136.455 49.9599 129.635 60.7073 118.995 72.633V72.5616H119.031Z" fill="#7ACAA6"/>
<path d="M138.74 46.2108C137.348 48.4959 134.241 53.459 129.564 59.7075C128.886 68.0983 126.029 79.06 116.817 87.2366C108.105 94.9847 97.4289 99.2694 89.0381 101.626C96.6077 100.483 114.175 96.6986 127.279 84.9871C141.847 72.0259 140.526 52.1379 139.776 46.425C139.704 45.8894 138.99 45.7466 138.705 46.2108H138.74Z" fill="#57BE92"/>
<path d="M105.463 104.304C93.6798 105.518 85.3604 102.09 85.3604 102.09C85.3604 102.09 93.9298 116.908 105.713 115.694C115.21 114.73 122.887 104.268 125.494 100.233C125.815 99.7693 125.315 99.1623 124.779 99.3765C121.602 100.698 114.211 103.411 105.427 104.304H105.463Z" fill="#57BE92"/>
<path d="M54.6535 65.4204C72.1136 85.1299 85.4675 102.126 85.4675 102.126C85.4675 102.126 60.8663 96.8414 43.442 77.1675C28.6955 60.5287 26.2318 39.748 25.8034 33.7495C25.8034 33.2139 26.4461 32.9282 26.8031 33.3567C30.0524 37.2129 40.3356 49.3171 54.6535 65.4561V65.4204Z" fill="#7ACAA6"/>
<path d="M44.049 67.6698C56.3674 81.595 70.8996 93.9492 78.3621 100.019C82.6468 101.519 85.3604 102.09 85.3604 102.09C85.3604 102.09 72.0065 85.0942 54.5464 65.3847C40.2642 49.2457 29.9809 37.1415 26.696 33.2853C26.339 32.8568 25.6606 33.1425 25.6963 33.678C25.7677 34.9277 25.9462 36.8558 26.339 39.2481C30.338 47.6747 36.0152 58.4935 44.0847 67.5984V67.6698H44.049Z" fill="#57BE92"/>
<path d="M42.4422 89.0575C63.4729 98.3766 85.3247 102.09 85.3247 102.09C85.3247 102.09 62.0089 110.659 40.0499 103.768C21.4473 97.9125 14.449 79.2741 12.7351 73.7397C12.5923 73.2041 13.1636 72.7757 13.592 73.097C17.1626 75.5607 27.8386 82.559 42.4065 89.0217H42.4422V89.0575Z" fill="#7ACAA6"/>
<path d="M35.194 93.628C48.9764 99.7336 64.6154 103.304 73.7918 105.054C80.7901 103.768 85.3604 102.09 85.3604 102.09C85.3604 102.09 63.5086 98.3768 42.4779 89.0576C27.91 82.5949 17.234 75.5966 13.6635 73.1329C13.1993 72.8116 12.628 73.24 12.8065 73.7756C13.4492 75.8822 14.8775 79.917 17.4126 84.3802C22.697 87.4866 28.9098 90.8072 35.2297 93.628H35.194Z" fill="#57BE92"/>
<path d="M67.9361 112.373C79.1833 108.624 85.3604 102.09 85.3604 102.09C85.3604 102.09 83.6465 119.122 72.3993 122.835C63.3657 125.834 52.047 119.479 47.9766 116.872C47.5124 116.587 47.6909 115.837 48.2622 115.837C51.69 115.73 59.5452 115.158 67.9361 112.373Z" fill="#57BE92"/>
<path d="M82.504 38.7484C88.4311 66.2774 85.3247 102.09 85.3247 102.09C85.3247 102.09 67.7218 70.7049 61.7947 43.1759C56.5816 19.0745 62.0803 5.93485 63.5085 3.0427C63.6871 2.72134 64.0798 2.61423 64.3655 2.86417C66.8649 4.89939 77.2909 14.6113 82.4683 38.7127H82.504V38.7484Z" fill="#7ACAA6"/>
<path d="M64.4012 2.86404C64.1155 2.6498 63.6871 2.72121 63.5443 3.04256C62.9373 4.25656 61.5804 7.36295 60.6521 12.3974C64.9725 18.2175 70.1855 27.6795 73.2205 41.7832C76.7196 57.9222 79.1476 78.56 80.5759 92.878C83.3966 98.5552 85.3961 102.054 85.3961 102.054C85.3961 102.054 88.5025 66.2059 82.5754 38.7125C77.3624 14.6112 66.9363 4.89926 64.4726 2.86404H64.4012Z" fill="#57BE92"/>
<path d="M56.9387 121.228L18.3766 101.126C13.1279 98.4125 6.70085 100.412 3.95151 105.661C1.20218 110.91 3.2374 117.337 8.48613 120.086L47.0483 140.188C51.1901 142.33 56.0461 141.545 59.2953 138.546C60.1522 137.724 60.902 136.76 61.4733 135.654C64.2227 130.405 62.1875 123.978 56.9387 121.228Z" fill="#FED2A4"/>
<path d="M155.415 145.472C155.415 128.155 142.061 117.801 123.851 119.229C105.641 120.657 79.2905 138.546 79.2905 138.546L37.2649 105.589C32.6232 101.947 25.9105 102.769 22.2328 107.375C18.5908 112.016 19.3764 118.729 24.0538 122.371L77.5766 164.361C79.469 165.86 81.7899 166.646 84.1821 166.646C86.5744 166.646 85.2176 166.61 85.7532 166.539L126.422 160.54L146.417 157.577C152.273 156.72 155.451 151.364 155.451 145.437L155.415 145.472Z" fill="#FFE5C2"/>
<path d="M130.207 119.193C138.348 123.442 143.454 131.476 143.454 142.152C143.454 152.828 140.276 153.435 134.42 154.292L114.425 157.255L75.7556 162.968L77.5766 164.396C79.469 165.896 81.7899 166.682 84.1822 166.682C86.5744 166.682 85.2176 166.646 85.7532 166.575L126.422 160.576L146.417 157.612C152.273 156.755 155.451 151.4 155.451 145.472C155.451 130.262 145.096 120.407 130.242 119.229H130.207V119.193Z" fill="#FED2A4"/>
<path d="M180.337 114.909L147.417 112.909C144.346 109.874 140.383 107.553 135.491 106.018C131.992 104.911 128.6 104.411 125.958 104.161C126.636 103.233 127.243 102.376 127.707 101.662C129.457 99.0195 126.672 95.6632 123.744 96.8772C122.173 97.5199 119.138 98.6981 115.21 99.7336L113.282 97.1628C139.633 85.5942 144.632 63.5281 142.454 46.0323C142.275 44.6755 141.24 43.5329 139.883 43.2472C138.526 42.9616 137.134 43.5686 136.419 44.7469C134.027 48.6745 127.386 59.1006 117.031 70.7049C114.175 73.9184 111.176 76.9534 108.212 79.7741C123.244 56.2441 119.424 27.8938 113.996 14.2186C113.496 12.8974 112.211 12.0405 110.819 12.1119C109.426 12.1833 108.212 13.1117 107.819 14.4685C106.498 19.9315 93.1086 63.1353 88.8239 78.4887C89.3595 50.2813 82.9324 14.0757 66.0794 0.721812C64.544 -0.599297 61.9732 -0.0280067 61.1163 1.79298C60.4022 3.25691 58.5812 7.39877 57.5814 14.1114C57.3672 15.5754 58.3669 16.9322 59.8309 17.1464C61.2948 17.3606 62.6516 16.3609 62.8658 14.897C63.3657 11.3978 64.1155 8.71988 64.7582 6.89889C82.5754 24.2161 84.5392 69.0267 83.1824 92.2354C77.6123 81.0953 68.3288 60.8501 64.3655 42.6046C63.1872 37.1416 62.5088 31.8929 62.2946 26.9298C62.2232 25.4658 60.9735 24.3233 59.5095 24.359C58.0456 24.4304 56.8673 25.6801 56.9387 27.144C57.5457 45.3182 65.2224 66.0275 72.2564 81.7737C67.6861 76.3464 62.366 70.0979 56.5817 63.5995C42.5493 47.7462 32.4803 35.8919 28.8027 31.5358C27.91 30.4646 26.4104 30.0719 25.0893 30.6075C23.7682 31.143 22.9826 32.4284 23.054 33.8567C23.7325 48.7102 32.0519 76.0965 55.4391 91.3071C51.5115 89.9145 47.4767 88.3435 43.442 86.5582C29.1954 80.2383 18.8408 73.4899 15.056 70.8477C13.9134 70.0622 12.4138 70.0979 11.3069 70.9191C10.2 71.7404 9.70013 73.1686 10.1286 74.4897C11.5568 79.1314 16.4842 92.3425 28.1957 100.769C27.1959 100.948 26.1961 101.233 25.2321 101.662L19.5549 98.6981C13.0208 95.3061 4.91557 97.8412 1.52353 104.375C-1.93992 110.66 0.738005 119.229 7.16502 122.407L44.656 141.973H44.7274L75.8627 166.396C78.7192 168.646 82.4683 169.645 86.0745 169.11L124.065 163.504C125.529 163.29 126.529 161.933 126.315 160.469C126.101 159.005 124.744 158.005 123.28 158.219L85.289 163.825C83.1467 164.147 80.8615 163.54 79.1476 162.183L25.6248 120.193C23.9467 118.872 22.8755 116.979 22.6256 114.837C22.3756 112.73 22.9469 110.624 24.268 108.946C27.0174 105.482 32.0519 104.875 35.5153 107.589L77.5409 140.545C78.4692 141.259 79.7189 141.295 80.683 140.652C80.9329 140.474 106.677 123.121 123.958 121.764C139.847 120.407 152.737 129.298 152.63 145.365C152.63 146.829 153.844 148.043 155.308 148.043C156.772 148.043 157.986 146.829 157.986 145.365C157.986 136.796 154.986 129.512 149.309 124.263C143.025 118.443 133.849 115.658 123.53 116.444C118.317 116.837 112.497 118.515 106.82 120.729L104.999 118.336C105.284 118.336 105.57 118.301 105.855 118.265C112.104 117.622 117.531 113.516 121.566 109.303C124.672 109.267 140.276 109.553 146.524 120.514C147.274 121.8 148.916 122.228 150.166 121.514C151.237 120.907 151.737 119.622 151.416 118.479L177.41 120.05V157.148L146.488 154.863H145.917L136.062 156.327C134.599 156.541 133.599 157.898 133.813 159.362C134.027 160.826 135.384 161.826 136.848 161.612L146.417 160.183L179.909 162.683C181.409 162.826 182.837 161.54 182.801 160.005V117.479C182.801 116.051 181.694 114.909 180.266 114.801L180.337 114.909ZM109.462 101.055C108.069 101.305 106.641 101.519 105.177 101.662C103.57 101.84 102.035 101.912 100.607 101.912C102.999 101.233 105.57 100.412 108.212 99.3765L109.497 101.055H109.462ZM59.4024 119.515L57.0815 117.694C64.544 116.765 75.2557 113.123 81.0043 108.981C79.469 113.445 76.6482 118.622 71.578 120.3C68.2931 121.407 64.2227 121.121 59.4024 119.515ZM67.0791 109.838C60.9734 111.874 55.1534 112.695 51.083 113.016L44.2632 107.66C53.2253 109.624 62.8659 109.481 71.3638 108.196C70.0427 108.803 68.6145 109.338 67.0791 109.874V109.838ZM121.03 74.3469C128.421 66.0989 133.956 58.3864 137.526 53.0663C138.133 78.5601 118.888 91.9498 96.0721 97.4841C102.856 92.164 112.39 84.0231 121.03 74.3469ZM100.857 56.7797C105.391 42.1761 108.89 30.3218 111.068 22.7879C113.318 31.4644 115.496 46.0323 110.783 61.2786C106.07 76.4892 96.5006 87.915 90.1093 94.2706C92.323 85.8441 96.1078 72.026 100.857 56.7797ZM45.4415 75.3466C34.8726 63.4209 30.8379 49.2101 29.3382 40.3908C39.4072 52.2808 68.4716 84.8801 77.8979 96.9129C69.4357 93.7351 56.0104 87.2723 45.4772 75.3466H45.4415ZM17.5911 78.8815C23.0183 82.2735 31.2306 86.9867 41.371 91.4856C53.261 96.77 65.2581 100.233 73.6847 102.304C65.151 103.875 52.7254 104.911 40.8712 101.198C27.91 97.1271 20.9474 86.2726 17.5911 78.8815ZM5.7725 113.016C5.1298 110.981 5.34404 108.803 6.30809 106.91C8.34331 102.983 13.1993 101.483 17.1269 103.518L20.4832 105.268C15.6987 110.588 16.3771 119.515 21.8758 124.085L9.66442 117.729C7.77202 116.729 6.3795 115.087 5.7368 113.016H5.7725ZM79.4333 135.225L68.0432 126.299C69.8642 126.227 71.6137 125.942 73.2205 125.37C79.2547 123.371 82.861 118.265 85.0034 113.337L88.5382 129.691C84.4678 131.976 81.2543 134.011 79.3976 135.225H79.4333ZM93.4656 127.048L90.2878 112.266C92.2873 114.052 94.6082 115.765 97.2504 116.908L101.856 122.978C98.9286 124.299 96.1078 125.692 93.4656 127.048ZM105.427 113.016C100.107 113.552 95.3937 110.017 92.1445 106.589C95.7508 107.16 100.392 107.517 105.713 106.982C110.783 106.446 115.389 105.375 119.067 104.268C115.675 108.16 110.783 112.481 105.391 113.052H105.427V113.016Z" fill="#0C2149"/>
<path d="M292.818 74.0195C292.182 71.8074 291.288 69.8529 290.136 68.1559C288.985 66.4286 287.576 64.9741 285.909 63.7923C284.273 62.5801 282.394 61.6559 280.273 61.0195C278.182 60.3832 275.864 60.065 273.318 60.065C268.561 60.065 264.379 61.2468 260.773 63.6104C257.197 65.9741 254.409 69.4135 252.409 73.9286C250.409 78.4135 249.409 83.8983 249.409 90.3832C249.409 96.868 250.394 102.383 252.364 106.929C254.333 111.474 257.121 114.944 260.727 117.338C264.333 119.701 268.591 120.883 273.5 120.883C277.955 120.883 281.758 120.095 284.909 118.52C288.091 116.913 290.515 114.656 292.182 111.747C293.879 108.838 294.727 105.398 294.727 101.429L298.727 102.02H274.727V87.2013H313.682V98.9286C313.682 107.11 311.955 114.141 308.5 120.02C305.045 125.868 300.288 130.383 294.227 133.565C288.167 136.717 281.227 138.292 273.409 138.292C264.682 138.292 257.015 136.368 250.409 132.52C243.803 128.641 238.652 123.141 234.955 116.02C231.288 108.868 229.455 100.383 229.455 90.565C229.455 83.0195 230.545 76.2923 232.727 70.3832C234.939 64.4438 238.03 59.4135 242 55.2923C245.97 51.171 250.591 48.0347 255.864 45.8832C261.136 43.7316 266.848 42.6559 273 42.6559C278.273 42.6559 283.182 43.4286 287.727 44.9741C292.273 46.4892 296.303 48.6407 299.818 51.4286C303.364 54.2165 306.258 57.5347 308.5 61.3832C310.742 65.2013 312.182 69.4135 312.818 74.0195H292.818ZM359.648 138.383C352.587 138.383 346.481 136.883 341.33 133.883C336.208 130.853 332.254 126.641 329.466 121.247C326.678 115.823 325.284 109.535 325.284 102.383C325.284 95.171 326.678 88.868 329.466 83.4741C332.254 78.0498 336.208 73.8377 341.33 70.8377C346.481 67.8074 352.587 66.2923 359.648 66.2923C366.708 66.2923 372.799 67.8074 377.92 70.8377C383.072 73.8377 387.042 78.0498 389.83 83.4741C392.617 88.868 394.011 95.171 394.011 102.383C394.011 109.535 392.617 115.823 389.83 121.247C387.042 126.641 383.072 130.853 377.92 133.883C372.799 136.883 366.708 138.383 359.648 138.383ZM359.739 123.383C362.951 123.383 365.633 122.474 367.784 120.656C369.936 118.807 371.557 116.292 372.648 113.11C373.769 109.929 374.33 106.307 374.33 102.247C374.33 98.1862 373.769 94.565 372.648 91.3832C371.557 88.2013 369.936 85.6862 367.784 83.8377C365.633 81.9892 362.951 81.065 359.739 81.065C356.496 81.065 353.769 81.9892 351.557 83.8377C349.375 85.6862 347.723 88.2013 346.602 91.3832C345.511 94.565 344.966 98.1862 344.966 102.247C344.966 106.307 345.511 109.929 346.602 113.11C347.723 116.292 349.375 118.807 351.557 120.656C353.769 122.474 356.496 123.383 359.739 123.383ZM438.148 138.383C431.087 138.383 424.981 136.883 419.83 133.883C414.708 130.853 410.754 126.641 407.966 121.247C405.178 115.823 403.784 109.535 403.784 102.383C403.784 95.171 405.178 88.868 407.966 83.4741C410.754 78.0498 414.708 73.8377 419.83 70.8377C424.981 67.8074 431.087 66.2923 438.148 66.2923C445.208 66.2923 451.299 67.8074 456.42 70.8377C461.572 73.8377 465.542 78.0498 468.33 83.4741C471.117 88.868 472.511 95.171 472.511 102.383C472.511 109.535 471.117 115.823 468.33 121.247C465.542 126.641 461.572 130.853 456.42 133.883C451.299 136.883 445.208 138.383 438.148 138.383ZM438.239 123.383C441.451 123.383 444.133 122.474 446.284 120.656C448.436 118.807 450.057 116.292 451.148 113.11C452.269 109.929 452.83 106.307 452.83 102.247C452.83 98.1862 452.269 94.565 451.148 91.3832C450.057 88.2013 448.436 85.6862 446.284 83.8377C444.133 81.9892 441.451 81.065 438.239 81.065C434.996 81.065 432.269 81.9892 430.057 83.8377C427.875 85.6862 426.223 88.2013 425.102 91.3832C424.011 94.565 423.466 98.1862 423.466 102.247C423.466 106.307 424.011 109.929 425.102 113.11C426.223 116.292 427.875 118.807 430.057 120.656C432.269 122.474 434.996 123.383 438.239 123.383ZM510.83 138.156C505.527 138.156 500.723 136.792 496.42 134.065C492.148 131.307 488.754 127.262 486.239 121.929C483.754 116.565 482.511 109.989 482.511 102.201C482.511 94.2013 483.799 87.5498 486.375 82.2468C488.951 76.9135 492.375 72.9286 496.648 70.2923C500.951 67.6256 505.663 66.2923 510.784 66.2923C514.693 66.2923 517.951 66.9589 520.557 68.2923C523.193 69.5953 525.314 71.2317 526.92 73.2013C528.557 75.1407 529.799 77.0498 530.648 78.9286H531.239V43.9286H550.557V137.02H531.466V125.838H530.648C529.739 127.777 528.451 129.701 526.784 131.61C525.148 133.489 523.011 135.05 520.375 136.292C517.769 137.535 514.587 138.156 510.83 138.156ZM516.966 122.747C520.087 122.747 522.723 121.898 524.875 120.201C527.057 118.474 528.723 116.065 529.875 112.974C531.057 109.883 531.648 106.262 531.648 102.11C531.648 97.9589 531.072 94.3529 529.92 91.2923C528.769 88.2317 527.102 85.868 524.92 84.2013C522.739 82.5347 520.087 81.7013 516.966 81.7013C513.784 81.7013 511.102 82.565 508.92 84.2923C506.739 86.0195 505.087 88.4135 503.966 91.4741C502.845 94.5347 502.284 98.0801 502.284 102.11C502.284 106.171 502.845 109.762 503.966 112.883C505.117 115.974 506.769 118.398 508.92 120.156C511.102 121.883 513.784 122.747 516.966 122.747ZM570.023 43.9286H583.477L615.114 121.201H616.205L647.841 43.9286H661.295V137.02H650.75V66.2923H649.841L620.75 137.02H610.568L581.477 66.2923H580.568V137.02H570.023V43.9286ZM682.443 67.2013H693.17V142.11C693.17 146.413 692.428 150.141 690.943 153.292C689.489 156.444 687.277 158.883 684.307 160.61C681.367 162.338 677.655 163.201 673.17 163.201C672.807 163.201 672.443 163.201 672.08 163.201C671.716 163.201 671.352 163.201 670.989 163.201V153.201C671.352 153.201 671.686 153.201 671.989 153.201C672.292 153.201 672.625 153.201 672.989 153.201C676.261 153.201 678.655 152.232 680.17 150.292C681.686 148.383 682.443 145.656 682.443 142.11V67.2013ZM687.716 55.565C685.625 55.565 683.822 54.8529 682.307 53.4286C680.822 52.0044 680.08 50.2923 680.08 48.2923C680.08 46.2923 680.822 44.5801 682.307 43.1559C683.822 41.7317 685.625 41.0195 687.716 41.0195C689.807 41.0195 691.595 41.7317 693.08 43.1559C694.595 44.5801 695.352 46.2923 695.352 48.2923C695.352 50.2923 694.595 52.0044 693.08 53.4286C691.595 54.8529 689.807 55.565 687.716 55.565Z" fill="black"/>
</svg>
