<svg width="742" height="153" viewBox="0 0 742 153" fill="none" xmlns="http://www.w3.org/2000/svg">
<g clip-path="url(#clip0_2077_3)">
<path d="M71.5012 54.698C54.0728 54.698 39.702 67.7162 37.8439 84.4538H22.5793C10.1137 84.4538 0 74.4577 0 62.137C0 49.8162 10.1137 39.8202 22.5793 39.8202H22.8381C24.6726 27.1972 35.6565 17.5034 48.9219 17.5034C60.188 17.5034 69.8078 24.5006 73.571 34.334C76.3934 33.0786 79.4981 32.3812 82.7909 32.3812C95.2566 32.3812 105.37 42.3773 105.37 54.698C105.37 57.5109 104.853 60.1842 103.888 62.6484C101.207 63.1831 98.667 64.1362 96.3385 65.4147C90.1527 58.8127 81.3091 54.698 71.5012 54.698ZM52.6851 136.526C40.2194 136.526 30.1058 126.53 30.1058 114.209C30.1058 104.33 36.5973 95.9376 45.6056 93.0085C45.2998 91.451 45.1587 89.8237 45.1587 88.1732C45.1587 73.7835 56.9423 62.137 71.5012 62.137C81.6384 62.137 90.435 67.7859 94.8332 76.085C98.2907 72.1098 103.418 69.5759 109.133 69.5759C119.529 69.5759 127.95 77.8982 127.95 88.1732C127.95 89.4518 127.808 90.6839 127.573 91.8927C127.691 91.8927 127.832 91.8927 127.95 91.8927C140.415 91.8927 150.529 101.889 150.529 114.209C150.529 126.53 140.415 136.526 127.95 136.526H52.6851Z" fill="#AA336A"/>
</g>
<path d="M193.377 119V38.3445H225.247C226.031 38.3445 226.965 38.3818 228.048 38.4565C229.131 38.4939 230.176 38.6059 231.184 38.7926C235.553 39.4647 239.213 40.9583 242.163 43.2734C245.15 45.5885 247.39 48.5198 248.884 52.0671C250.377 55.5771 251.124 59.4792 251.124 63.7734C251.124 68.0302 250.359 71.9323 248.828 75.4796C247.334 78.9896 245.094 81.9209 242.107 84.2733C239.157 86.5884 235.516 88.0821 231.184 88.7542C230.176 88.9035 229.131 89.0156 228.048 89.0902C226.965 89.1649 226.031 89.2023 225.247 89.2023H203.347V119H193.377ZM203.347 79.7364H224.911C225.621 79.7364 226.424 79.6991 227.32 79.6244C228.253 79.5497 229.131 79.4191 229.952 79.2324C232.529 78.6349 234.62 77.552 236.225 75.9837C237.868 74.3781 239.063 72.5111 239.81 70.3827C240.557 68.2169 240.93 66.0138 240.93 63.7734C240.93 61.5329 240.557 59.3485 239.81 57.2201C239.063 55.0544 237.868 53.1687 236.225 51.563C234.62 49.9574 232.529 48.8745 229.952 48.3144C229.131 48.0904 228.253 47.9597 227.32 47.9223C226.424 47.8477 225.621 47.8103 224.911 47.8103H203.347V79.7364ZM263.417 47.8103V37.5043H273.387V47.8103H263.417ZM263.417 119V58.5084H273.387V119H263.417ZM333.265 119V88.6982C333.265 85.823 333.004 83.0598 332.481 80.4086C331.995 77.7574 331.118 75.3863 329.848 73.2952C328.616 71.1668 326.936 69.4865 324.807 68.2542C322.716 67.022 320.065 66.4059 316.854 66.4059C314.352 66.4059 312.074 66.8353 310.02 67.6941C308.004 68.5156 306.268 69.7852 304.811 71.5029C303.355 73.2205 302.216 75.3863 301.395 78.0001C300.611 80.5766 300.219 83.6199 300.219 87.1299L293.665 85.1135C293.665 79.251 294.711 74.2287 296.802 70.0466C298.93 65.8271 301.899 62.5972 305.708 60.3567C309.554 58.079 314.072 56.9401 319.262 56.9401C323.183 56.9401 326.525 57.5562 329.288 58.7884C332.051 60.0207 334.348 61.6636 336.177 63.7174C338.007 65.7338 339.445 68.0115 340.49 70.5507C341.536 73.0525 342.264 75.6103 342.675 78.2242C343.123 80.8007 343.347 83.2465 343.347 85.5616V119H333.265ZM290.137 119V58.5084H299.098V74.6955H300.219V119H290.137ZM357.853 119L357.909 38.3445H367.991V87.634L393.364 58.5084H406.302L379.585 88.7542L409.439 119H395.492L367.991 89.8744V119H357.853ZM470.598 120.68C462.57 120.68 455.755 118.907 450.154 115.359C444.553 111.812 440.278 106.883 437.328 100.572C434.415 94.2619 432.959 86.9618 432.959 78.6722C432.959 70.3827 434.415 63.0826 437.328 56.772C440.278 50.4615 444.553 45.5325 450.154 41.9852C455.755 38.4378 462.57 36.6642 470.598 36.6642C479.933 36.6642 487.607 39.0353 493.618 43.7775C499.668 48.5198 503.831 54.905 506.109 62.9332L495.971 65.6217C494.328 59.6099 491.397 54.8677 487.177 51.395C482.958 47.9223 477.431 46.186 470.598 46.186C464.586 46.186 459.583 47.5489 455.587 50.2748C451.592 53.0006 448.586 56.8094 446.569 61.701C444.553 66.5552 443.526 72.2123 443.489 78.6722C443.452 85.0948 444.441 90.7519 446.457 95.6435C448.474 100.498 451.498 104.307 455.531 107.07C459.564 109.796 464.586 111.158 470.598 111.158C477.431 111.158 482.958 109.422 487.177 105.949C491.397 102.439 494.328 97.6972 495.971 91.7228L506.109 94.4113C503.831 102.402 499.668 108.787 493.618 113.567C487.607 118.309 479.933 120.68 470.598 120.68ZM519.513 119V36.6642H529.483V119H519.513ZM572.054 120.68C566.042 120.68 560.852 119.317 556.483 116.592C552.151 113.866 548.809 110.094 546.457 105.277C544.104 100.46 542.928 94.934 542.928 88.6982C542.928 82.3503 544.123 76.7865 546.513 72.007C548.903 67.2274 552.282 63.512 556.651 60.8608C561.02 58.1723 566.154 56.828 572.054 56.828C578.103 56.828 583.312 58.191 587.681 60.9168C592.05 63.6053 595.392 67.3581 597.707 72.175C600.059 76.9546 601.235 82.4623 601.235 88.6982C601.235 95.0087 600.059 100.572 597.707 105.389C595.354 110.169 591.994 113.922 587.625 116.648C583.256 119.336 578.066 120.68 572.054 120.68ZM572.054 111.215C578.327 111.215 582.994 109.123 586.056 104.941C589.118 100.759 590.649 95.3448 590.649 88.6982C590.649 81.8649 589.1 76.4318 586 72.399C582.901 68.3289 578.252 66.2939 572.054 66.2939C567.834 66.2939 564.362 67.246 561.636 69.1504C558.91 71.0548 556.875 73.6873 555.531 77.0479C554.186 80.4086 553.514 84.292 553.514 88.6982C553.514 95.4941 555.082 100.946 558.219 105.053C561.356 109.161 565.967 111.215 572.054 111.215ZM636.532 120.568C632.648 120.568 629.306 119.952 626.506 118.72C623.743 117.488 621.446 115.845 619.616 113.791C617.787 111.737 616.349 109.459 615.304 106.958C614.258 104.456 613.511 101.898 613.063 99.2842C612.652 96.6704 612.447 94.2246 612.447 91.9468V58.5084H622.529V88.8102C622.529 91.6481 622.79 94.3926 623.313 97.0438C623.836 99.695 624.713 102.085 625.946 104.213C627.215 106.342 628.896 108.022 630.987 109.254C633.115 110.486 635.766 111.102 638.94 111.102C641.442 111.102 643.72 110.673 645.774 109.814C647.827 108.955 649.582 107.686 651.039 106.006C652.495 104.288 653.615 102.122 654.399 99.5083C655.183 96.8944 655.575 93.8512 655.575 90.3785L662.129 92.3949C662.129 98.22 661.064 103.242 658.936 107.462C656.845 111.681 653.876 114.93 650.03 117.208C646.222 119.448 641.722 120.568 636.532 120.568ZM656.696 119V102.813H655.575V58.5084H665.601V119H656.696ZM705.032 120.68C699.394 120.68 694.558 119.28 690.525 116.48C686.492 113.642 683.375 109.814 681.171 104.997C679.006 100.18 677.923 94.7473 677.923 88.6982C677.923 82.649 679.006 77.216 681.171 72.399C683.375 67.5821 686.492 63.792 690.525 61.0288C694.558 58.2283 699.375 56.828 704.976 56.828C710.689 56.828 715.487 58.2096 719.371 60.9728C723.254 63.736 726.185 67.5261 728.164 72.343C730.181 77.16 731.189 82.6117 731.189 88.6982C731.189 94.71 730.181 100.143 728.164 104.997C726.185 109.814 723.254 113.642 719.371 116.48C715.487 119.28 710.708 120.68 705.032 120.68ZM706.264 111.551C710.334 111.551 713.676 110.58 716.29 108.638C718.904 106.659 720.827 103.952 722.059 100.516C723.329 97.0438 723.964 93.1044 723.964 88.6982C723.964 84.2173 723.329 80.2779 722.059 76.8799C720.827 73.4446 718.923 70.7747 716.346 68.8704C713.77 66.9287 710.502 65.9578 706.544 65.9578C702.437 65.9578 699.039 66.966 696.35 68.9824C693.699 70.9988 691.72 73.7246 690.413 77.16C689.144 80.5953 688.509 84.4414 688.509 88.6982C688.509 92.9923 689.162 96.8757 690.469 100.348C691.776 103.784 693.737 106.51 696.35 108.526C699.002 110.542 702.306 111.551 706.264 111.551ZM723.964 119V74.4714H722.843V38.3445H732.869V119H723.964Z" fill="black"/>
<defs>
<clipPath id="clip0_2077_3">
<rect width="150.529" height="119.023" fill="white" transform="translate(0 17.5034)"/>
</clipPath>
</defs>
</svg>
